<svg viewBox="0 0 117 103" fill="none" xmlns="http://www.w3.org/2000/svg">
<path d="M58.6568 48.2495C57.7076 48.3045 56.756 48.3045 55.8068 48.2495C55.1529 48.1648 54.492 48.3408 53.9668 48.7395C49.3001 51.9195 44.6035 55.0895 39.8768 58.2495L39.3268 58.6195C39.0857 58.8329 38.7792 58.9581 38.4576 58.9745C38.1359 58.9908 37.8183 58.8974 37.5568 58.7095C37.2793 58.5195 37.0754 58.2402 36.9789 57.9181C36.8825 57.596 36.8994 57.2506 37.0268 56.9395C37.9868 53.3995 38.9368 49.8595 39.8768 46.3195C40.1068 45.4595 40.6568 44.4895 40.4168 43.7795C40.1768 43.0695 39.1168 42.7795 38.4168 42.3095C33.6168 38.9095 29.9768 34.6195 28.5868 28.7895C26.9068 21.7395 28.9068 15.5695 33.6568 10.2695C38.126 5.3907 44.0679 2.10719 50.5768 0.919452C59.4074 -1.09979 68.6733 0.233078 76.5768 4.65945C81.8068 7.59945 85.9368 11.6595 87.9768 17.4195C90.8868 25.5995 88.7768 32.7595 82.9168 38.8795C78.1768 43.8795 72.1868 46.4895 65.5168 47.7495C63.258 48.1877 60.9552 48.3555 58.6568 48.2495Z" fill="#34221E"></path>
<path fill-rule="evenodd" clip-rule="evenodd" d="M18.2855 94.0459C18.6255 94.0459 18.9886 94.0024 19.3773 93.918C19.7646 93.8324 20.1469 93.7135 20.5253 93.5626C20.9037 93.4118 21.2617 93.2328 21.603 93.0244C21.9431 92.816 22.2359 92.5898 22.4813 92.3443V88.7711h29.8158C18.4555 88.7711 17.4634 89.0037 16.8396 89.4665C16.2157 89.9293 15.9038 90.6427 15.9038 91.6066C15.9038 92.4005 16.107 93.0052 16.5136 93.422C16.9201 93.8375 17.5107 94.0446 18.2855 94.0446M13.6358 91.7204C13.6358 90.1888 14.1318 89.0357 15.1239 88.261C16.116 87.4862 17.576 87.0976 19.5051 87.0976H22.4813V85.8792C22.4813 84.689 22.2256 83.8427 21.7155 83.3428C21.2054 82.8417 20.4499 82.5911 19.4476 82.5911C18.7483 82.5911 18.0298 82.6857 17.2921 82.8736C16.5558 83.0628 15.8846 83.2993 15.2799 83.5832L14.5716 81.9097C15.3259 81.475 16.1352 81.1401 16.9955 80.9036C17.8546 80.6683 18.692 80.5494 19.5051 80.5494C21.2809 80.5494 22.604 80.9841 23.4734 81.8534C24.3427 82.7228 24.7774 84.1035 24.7774 85.993V95.7475H23.0208L22.737 94.1021C21.9993 94.7068 21.1901 95.1696 20.3131 95.4918C19.4335 95.8114 18.6153 95.9725 17.8598 95.9725C16.5366 95.9725 15.5023 95.5992 14.7557 94.8526C14.0078 94.1073 13.6358 93.0628 13.6358 91.7204ZM38.417 80.3794L40.2887 81.7691L35.3846 87.8928L41.0544 94.6685L39.1828 96.1438L32.5771 88.0066L38.417 80.3794ZM31.5288 95.7462H29.1471V74.5382L31.5288 74V95.7462ZM47.4338 94.0459C47.7739 94.0459 48.137 94.0024 48.5256 93.918C48.913 93.8324 49.2952 93.7135 49.6737 93.5626C50.0521 93.4118 50.41 93.2328 50.7514 93.0244C51.0914 92.816 51.3842 92.5898 51.6297 92.3443V88.7711H48.9641C47.6026 88.7711 46.6105 89.0037 45.9854 89.4665C45.3628 89.9293 45.0521 90.6427 45.0521 91.6066C45.0521 92.4005 45.2541 93.0052 45.6607 93.422C46.0672 93.8375 46.6578 94.0446 47.4326 94.0446M42.7829 91.7204C42.7829 90.1888 43.2789 89.0357 44.271 88.261C45.2631 87.4862 46.723 87.0976 48.6509 87.0976H51.6284V85.8792C51.6284 84.689 51.3727 83.8427 50.8626 83.3428C50.3525 82.8417 49.597 82.5911 48.5947 82.5911C47.8954 82.5911 47.1769 82.6857 46.4405 82.8736C45.7028 83.0628 45.0317 83.2993 44.427 83.5832L43.7187 81.9097C44.473 81.475 45.2822 81.1401 46.1426 80.9036C47.003 80.6683 47.8391 80.5494 48.6509 80.5494C50.4279 80.5494 51.7511 80.9841 52.6205 81.8534C53.4898 82.7228 53.9245 84.1035 53.9245 85.993V95.7475H52.1666L51.8841 94.1021C51.1464 94.7068 50.3385 95.1696 49.4602 95.4918C48.5806 95.8114 47.7624 95.9725 47.0068 95.9725C45.6837 95.9725 44.6481 95.5992 43.9028 94.8526C43.1562 94.1073 42.7829 93.0628 42.7829 91.7204ZM63.6431 82.5054C62.32 82.5054 61.2934 83.0015 60.5672 83.9948C59.8385 84.9869 59.4754 86.4277 59.4754 88.3185C59.4754 90.208 59.8385 91.6399 60.5672 92.614C61.2934 93.5869 62.3187 94.074 63.6431 94.074C64.965 94.074 65.9916 93.5882 66.7191 92.6128C67.4465 91.6412 67.8108 90.2093 67.8108 88.3172C67.8108 86.4277 67.4465 84.9869 66.7191 83.9948C65.9904 83.0015 64.965 82.5054 63.6431 82.5054ZM63.6431 80.5494C65.7219 80.5494 67.3468 81.2155 68.5191 82.5476C69.6914 83.881 70.277 85.8051 70.277 88.3185C70.277 90.8127 69.6953 92.7227 68.5332 94.0459C67.3698 95.3678 65.7411 96.03 63.6431 96.03C61.5631 96.03 59.9382 95.3678 58.7659 94.0459C57.5936 92.7227 57.0081 90.8127 57.0081 88.3185C57.0081 85.8051 57.5987 83.881 58.78 82.5476C59.9612 81.2155 61.5823 80.5494 63.6431 80.5494ZM79.5009 83.4131C79.1237 83.4131 78.721 83.4643 78.2966 83.5691C77.8709 83.6727 77.4976 83.8005 77.1767 83.9526V93.2226C77.3084 93.2609 77.5027 93.2852 77.7571 93.2942C78.0128 93.3031 78.2723 93.307 78.5369 93.307C80.0301 93.307 81.0836 92.8314 81.6985 91.8751C82.3122 90.9214 82.6203 89.6314 82.6203 88.0066C82.6203 87.3073 82.573 86.6731 82.4784 86.1068C82.3838 85.5392 82.2188 85.0585 81.9823 84.6609C81.7458 84.2646 81.43 83.9577 81.0324 83.7404C80.6361 83.5218 80.1248 83.4131 79.5009 83.4131ZM79.5865 96.1719C79.1902 96.1719 78.8067 96.1528 78.4385 96.1144C78.0703 96.076 77.6497 95.9917 77.1767 95.8587V101.502H73.3772V80.8038H76.0708L76.5247 82.0516C77.0156 81.5607 77.5973 81.1541 78.2685 80.8332C78.9384 80.5111 79.7847 80.3513 80.8062 80.3513C81.788 80.3513 82.6343 80.5264 83.3439 80.8754C84.0521 81.2257 84.6376 81.732 85.1017 82.3929C85.5645 83.0539 85.9097 83.8567 86.1373 84.8028C86.3623 85.7488 86.476 86.8151 86.476 88.0066C86.476 89.2543 86.306 90.3781 85.9659 91.3803C85.6259 92.3826 85.1528 93.2366 84.5481 93.9462C83.9434 94.6544 83.2199 95.2029 82.3799 95.5902C81.5374 95.9776 80.6067 96.1719 79.5865 96.1719ZM93.6736 93.1945C94.3359 93.1945 94.9649 93.0717 95.5593 92.8263C96.1551 92.5808 96.623 92.3059 96.963 92.0042V89.083H94.9214C92.8426 89.083 91.802 89.859 91.802 91.4085C91.802 91.9569 91.958 92.3916 92.2712 92.7125C92.5818 93.0346 93.051 93.1945 93.6736 93.1945ZM88.372 91.4366C88.372 89.8488 88.8961 88.6534 89.9457 87.8506C90.994 87.0477 92.5409 86.645 94.5813 86.645H96.963V86.1336C96.963 85.7194 96.9247 85.3512 96.8493 85.0291C96.7738 84.7082 96.6319 84.4384 96.4248 84.2211C96.2164 84.0038 95.9377 83.8376 95.5875 83.7251C95.2384 83.6113 94.7795 83.555 94.2131 83.555C93.5138 83.555 92.8375 83.6305 92.1855 83.7813C91.5335 83.9335 90.8675 84.1879 90.1861 84.5484L89.1377 81.9391C89.8562 81.4469 90.7102 81.0595 91.7036 80.7757C92.6956 80.4932 93.6839 80.3513 94.667 80.3513C96.5949 80.3513 98.0497 80.8243 99.0328 81.7691C100.015 82.7151 100.507 84.1597 100.507 86.1068V95.7462H97.8413L97.4169 94.4703C96.6409 95.075 95.861 95.5059 95.0774 95.7616C94.2924 96.016 93.5701 96.1425 92.9091 96.1425C91.4338 96.1425 90.3101 95.7322 89.5341 94.9101C88.7593 94.0881 88.372 92.9298 88.372 91.4366ZM112.35 94.1865C111.67 96.0773 110.887 97.6792 109.998 98.9934C109.109 100.306 108.07 101.351 106.879 102.126L104.526 99.9714C105.338 99.2709 106.009 98.6099 106.539 97.986C107.068 97.3622 107.55 96.6437 107.984 95.8319L102.711 81.2871L106.482 80.2656L109.884 92.0324L113.259 80.2375L117 81.3152L112.35 94.1865ZM2.37917 74L0 74.5369V95.7462H2.37789L2.37917 74ZM3.42877 88.0066L10.0357 96.1425L11.9074 94.6672L6.23749 87.8915L11.1416 81.7678L9.26995 80.3794L3.42877 88.0066Z" fill="#391D1D"></path>
</svg>
